<svg width="256" height="257" viewBox="0 0 256 257" fill="none" xmlns="http://www.w3.org/2000/svg">
<g clip-path="url(#clip0_505_26038)">
<path d="M81.023 63.5597C81.3952 63.9319 81.837 64.2272 82.3233 64.4286C82.8096 64.6301 83.3309 64.7337 83.8572 64.7337C84.3836 64.7337 84.9048 64.6301 85.3911 64.4286C85.8774 64.2272 86.3193 63.9319 86.6915 63.5597L92.0915 58.1597L97.4915 63.5597C97.8637 63.9319 98.3055 64.2271 98.7918 64.4286C99.278 64.63 99.7992 64.7337 100.326 64.7337C100.852 64.7337 101.373 64.6301 101.859 64.4287C102.346 64.2273 102.788 63.9321 103.16 63.5599C103.532 63.1877 103.827 62.7459 104.029 62.2596C104.23 61.7734 104.334 61.2522 104.334 60.7258C104.334 60.1995 104.23 59.6783 104.029 59.192C103.827 58.7057 103.532 58.2639 103.16 57.8917L97.76 52.4917L103.16 47.0917C103.532 46.7193 103.827 46.2773 104.028 45.7909C104.23 45.3045 104.333 44.7832 104.333 44.2568C104.333 43.7304 104.229 43.2092 104.027 42.723C103.826 42.2367 103.53 41.795 103.158 41.4229C102.785 41.0508 102.343 40.7558 101.857 40.5545C101.371 40.3533 100.849 40.2498 100.323 40.25C99.7965 40.2502 99.2753 40.3541 98.7891 40.5557C98.3028 40.7574 97.8611 41.0528 97.489 41.4252L92.089 46.8252L86.689 41.4252C86.3168 41.053 85.8749 40.7577 85.3886 40.5563C84.9023 40.3549 84.3811 40.2512 83.8547 40.2512C83.3284 40.2512 82.8071 40.3549 82.3208 40.5563C81.8345 40.7577 81.3927 41.053 81.0205 41.4252C80.6483 41.7974 80.353 42.2392 80.1516 42.7255C79.9502 43.2118 79.8465 43.733 79.8465 44.2594C79.8465 44.7858 79.9502 45.307 80.1516 45.7933C80.353 46.2796 80.6483 46.7215 81.0205 47.0937L86.4205 52.4937L81.0205 57.8937C80.2698 58.6456 79.8484 59.6647 79.8489 60.7272C79.8494 61.7896 80.2717 62.8084 81.023 63.5597Z" fill="url(#paint0_linear_505_26038)"/>
<path d="M152.842 63.5597C153.215 63.9319 153.657 64.2272 154.143 64.4286C154.629 64.6301 155.15 64.7337 155.677 64.7337C156.203 64.7337 156.724 64.6301 157.211 64.4286C157.697 64.2272 158.139 63.9319 158.511 63.5597L163.911 58.1597L169.311 63.5597C170.063 64.3114 171.082 64.7337 172.145 64.7337C173.208 64.7338 174.228 64.3115 174.979 63.5599C175.731 62.8083 176.153 61.7888 176.153 60.7258C176.153 59.6628 175.731 58.6433 174.98 57.8917L169.579 52.4917L174.98 47.0917C175.352 46.7193 175.647 46.2773 175.848 45.7909C176.049 45.3045 176.153 44.7832 176.152 44.2568C176.152 43.7304 176.048 43.2092 175.847 42.723C175.645 42.2367 175.35 41.795 174.977 41.4229C174.605 41.0508 174.163 40.7558 173.676 40.5545C173.19 40.3533 172.669 40.2498 172.142 40.25C171.616 40.2502 171.095 40.3541 170.609 40.5557C170.122 40.7574 169.681 41.0528 169.309 41.4252L163.908 46.8252L158.508 41.4252C158.136 41.053 157.694 40.7577 157.208 40.5563C156.722 40.3549 156.201 40.2512 155.674 40.2512C155.148 40.2512 154.627 40.3549 154.14 40.5563C153.654 40.7577 153.212 41.053 152.84 41.4252C152.468 41.7974 152.173 42.2392 151.971 42.7255C151.77 43.2118 151.666 43.733 151.666 44.2594C151.666 44.7858 151.77 45.307 151.971 45.7933C152.173 46.2796 152.468 46.7215 152.84 47.0937L158.24 52.4937L152.84 57.8937C152.089 58.6456 151.668 59.6647 151.668 60.7272C151.669 61.7896 152.091 62.8084 152.842 63.5597Z" fill="url(#paint1_linear_505_26038)"/>
<path d="M74.954 101.282L84.75 94.4584C85.5227 93.9237 86.4401 93.6372 87.3798 93.6372C88.3195 93.6372 89.2368 93.9237 90.0095 94.4584L99.8 101.283C101.919 102.75 104.434 103.536 107.012 103.536C109.589 103.536 112.104 102.75 114.223 101.283L124.017 94.4589C124.789 93.9238 125.707 93.6371 126.647 93.6371C127.586 93.6371 128.504 93.9238 129.276 94.4589L139.071 101.283C141.19 102.75 143.705 103.536 146.282 103.536C148.859 103.536 151.375 102.75 153.494 101.283L163.288 94.4584C164.06 93.9233 164.978 93.6366 165.918 93.6366C166.857 93.6366 167.775 93.9233 168.547 94.4584L181.044 103.165C181.476 103.466 181.963 103.679 182.477 103.791C182.991 103.904 183.522 103.914 184.04 103.822C184.558 103.729 185.053 103.535 185.496 103.252C185.939 102.968 186.322 102.599 186.623 102.168C186.924 101.736 187.137 101.249 187.25 100.735C187.362 100.221 187.373 99.6896 187.28 99.1715C187.188 98.6534 186.994 98.1587 186.71 97.7154C186.426 97.2722 186.058 96.8893 185.626 96.5884L173.129 87.8814C171.011 86.4136 168.495 85.6272 165.918 85.6272C163.34 85.6272 160.824 86.4136 158.706 87.8814L148.912 94.7054C148.14 95.2407 147.222 95.5274 146.282 95.5274C145.342 95.5274 144.425 95.2407 143.653 94.7054L133.86 87.8819C131.742 86.4141 129.226 85.6276 126.649 85.6276C124.071 85.6276 121.555 86.4141 119.437 87.8819L109.644 94.7054C108.871 95.2404 107.953 95.5271 107.014 95.5271C106.074 95.5271 105.156 95.2404 104.384 94.7054L94.5895 87.8814C92.4711 86.4135 89.9551 85.627 87.3778 85.627C84.8004 85.627 82.2845 86.4135 80.166 87.8814L70.372 94.7054C69.4999 95.313 68.9049 96.2422 68.7179 97.2885C68.5309 98.3348 68.7671 99.4126 69.3748 100.285C69.9824 101.157 70.9115 101.752 71.9578 101.939C73.0042 102.126 74.0819 101.89 74.954 101.282V101.282Z" fill="url(#paint2_linear_505_26038)"/>
<path d="M230.45 14.5775V14.5762C230.445 10.5781 228.854 6.74534 226.026 3.9189C223.198 1.09247 219.365 -0.496741 215.367 -0.5H215.366L40.634 -0.5L40.6332 -0.5C36.6351 -0.496741 32.8016 1.09247 29.9738 3.9189C27.1461 6.74534 25.5551 10.5781 25.55 14.5762V14.5775V75.9925L1.16737 92.7864C1.16733 92.7864 1.1673 92.7864 1.16727 92.7864C0.470795 93.266 -0.0926563 93.9145 -0.470394 94.671C-0.841281 95.4139 -1.02123 96.2372 -0.994341 97.0665C-0.995132 97.0771 -0.996392 97.0944 -0.997425 97.1128C-0.998708 97.1358 -1 97.1663 -1 97.2015L-1 237.943L-0.999999 237.945C-0.993025 243.13 1.0705 248.101 4.73788 251.767C8.40527 255.433 13.377 257.495 18.5625 257.5H18.5635H237.436H237.437C242.623 257.495 247.595 255.433 251.262 251.767C254.93 248.101 256.993 243.13 257 237.945V237.943V97.241V97.2C257 97.1428 256.997 97.0932 256.995 97.0684L256.995 97.0595C257.02 96.232 256.84 95.4107 256.47 94.6695C256.093 93.9129 255.529 93.2645 254.833 92.7849L230.45 75.9925V14.5775ZM220.432 112.058V112.059C220.433 112.339 220.457 112.617 220.503 112.892L144.114 165.503C144.113 165.504 144.112 165.504 144.112 165.505C139.364 168.747 133.749 170.482 128 170.482C122.251 170.482 116.636 168.747 111.888 165.505C111.888 165.504 111.887 165.504 111.886 165.503L35.5675 112.941V14.579C35.5695 13.236 36.1041 11.9487 37.0541 10.9994C38.0041 10.0502 39.2918 9.51649 40.6347 9.5155H215.365C216.708 9.51649 217.996 10.0502 218.946 10.9994C219.896 11.9487 220.431 13.236 220.432 14.579V112.058ZM70.6873 173.407L9.90628 241.953C9.32178 240.703 9.01542 239.335 9.0155 237.944V106.816L106.208 173.754L106.211 173.756C112.631 178.142 120.225 180.488 128 180.488C135.775 180.488 143.369 178.142 149.789 173.756L149.792 173.754L246.984 106.816V237.943C246.985 239.335 246.678 240.703 246.094 241.953L185.313 173.407C184.876 172.915 184.347 172.513 183.756 172.226C183.165 171.938 182.522 171.77 181.866 171.73C181.21 171.691 180.552 171.781 179.93 171.996C179.309 172.211 178.736 172.546 178.244 172.982C177.751 173.419 177.35 173.948 177.063 174.539C176.775 175.13 176.607 175.773 176.567 176.429C176.528 177.085 176.618 177.743 176.833 178.365C177.048 178.986 177.383 179.559 177.819 180.051L237.612 247.481C237.553 247.482 237.494 247.483 237.435 247.483L18.5645 247.484C18.5057 247.484 18.447 247.484 18.3882 247.483L78.1807 180.052C79.0619 179.058 79.5122 177.755 79.4327 176.43C79.3531 175.104 78.7502 173.864 77.7565 172.983C77.2645 172.546 76.6913 172.211 76.0698 171.997C75.4482 171.782 74.7905 171.691 74.134 171.731C72.8083 171.81 71.5685 172.413 70.6873 173.407L71.4355 174.07L70.6873 173.407ZM230.45 88.1531L243.437 97.0985L230.45 106.043V88.1531ZM25.55 106.043L12.5629 97.0998L25.55 88.1532V106.043Z" fill="url(#paint3_linear_505_26038)" stroke="url(#paint4_linear_505_26038)" stroke-width="2" stroke-linejoin="round"/>
</g>
<defs>
<linearGradient id="paint0_linear_505_26038" x1="92.0901" y1="40.25" x2="92.0901" y2="64.7337" gradientUnits="userSpaceOnUse">
<stop stop-color="#3098BA"/>
<stop offset="1" stop-color="#7CD5BD"/>
</linearGradient>
<linearGradient id="paint1_linear_505_26038" x1="163.91" y1="40.25" x2="163.91" y2="64.7337" gradientUnits="userSpaceOnUse">
<stop stop-color="#3098BA"/>
<stop offset="1" stop-color="#7CD5BD"/>
</linearGradient>
<linearGradient id="paint2_linear_505_26038" x1="127.999" y1="85.627" x2="127.999" y2="103.884" gradientUnits="userSpaceOnUse">
<stop stop-color="#3098BA"/>
<stop offset="1" stop-color="#7CD5BD"/>
</linearGradient>
<linearGradient id="paint3_linear_505_26038" x1="128" y1="0.5" x2="128" y2="256.5" gradientUnits="userSpaceOnUse">
<stop stop-color="#3098BA"/>
<stop offset="1" stop-color="#7CD5BD"/>
</linearGradient>
<linearGradient id="paint4_linear_505_26038" x1="128" y1="0.5" x2="128" y2="256.5" gradientUnits="userSpaceOnUse">
<stop stop-color="#3098BA"/>
<stop offset="1" stop-color="#7CD5BD"/>
</linearGradient>
<clipPath id="clip0_505_26038">
<rect width="256" height="256" fill="white" transform="translate(0 0.5)"/>
</clipPath>
</defs>
</svg>
