<svg width="16" height="16" viewBox="0 0 16 16" fill="none" xmlns="http://www.w3.org/2000/svg">
    <path fill-rule="evenodd" clip-rule="evenodd" d="M7.01874 1.52188C7.31826 1.35324 7.6562 1.26465 7.99993 1.26465C8.34367 1.26465 8.6816 1.35324 8.98113 1.52188C9.28065 1.69051 9.53166 1.9335 9.70993 2.22739L9.71185 2.23056L15.3585 11.6572L15.3639 11.6664C15.5386 11.9689 15.631 12.3117 15.6319 12.661C15.6329 13.0102 15.5424 13.3536 15.3695 13.657C15.1966 13.9604 14.9472 14.2132 14.6462 14.3903C14.3452 14.5674 14.0031 14.6626 13.6539 14.6664L13.6466 14.6665L2.34594 14.6665C1.99674 14.6626 1.65463 14.5674 1.35365 14.3903C1.05266 14.2132 0.803301 13.9604 0.630365 13.657C0.45743 13.3536 0.36695 13.0102 0.367928 12.661C0.368906 12.3117 0.461307 11.9689 0.635939 11.6664L0.641354 11.6572L6.28802 2.23056L6.85992 2.57314L6.28993 2.22739C6.4682 1.9335 6.71921 1.69051 7.01874 1.52188ZM7.43074 2.91757L1.78839 12.337C1.73161 12.4369 1.70158 12.5498 1.70126 12.6647C1.70093 12.7811 1.73109 12.8956 1.78874 12.9967C1.84638 13.0978 1.9295 13.1821 2.02983 13.2411C2.12928 13.2997 2.2422 13.3313 2.35753 13.3331H13.6423C13.7577 13.3313 13.8706 13.2997 13.97 13.2411C14.0704 13.1821 14.1535 13.0978 14.2111 12.9967C14.2688 12.8956 14.2989 12.7811 14.2986 12.6647C14.2983 12.5498 14.2683 12.4369 14.2115 12.3371L8.56993 2.9189C8.56966 2.91845 8.5694 2.91801 8.56913 2.91757C8.50975 2.8202 8.42639 2.73968 8.327 2.68372C8.22716 2.62751 8.11451 2.59798 7.99993 2.59798C7.88535 2.59798 7.77271 2.62751 7.67287 2.68372C7.57348 2.73968 7.49011 2.8202 7.43074 2.91757Z" fill="#FD272F"/>
    <path fill-rule="evenodd" clip-rule="evenodd" d="M7.99992 5.3335C8.36811 5.3335 8.66659 5.63197 8.66659 6.00016V8.66683C8.66659 9.03502 8.36811 9.3335 7.99992 9.3335C7.63173 9.3335 7.33325 9.03502 7.33325 8.66683V6.00016C7.33325 5.63197 7.63173 5.3335 7.99992 5.3335Z" fill="#FD272F"/>
    <path fill-rule="evenodd" clip-rule="evenodd" d="M7.33325 11.3332C7.33325 10.965 7.63173 10.6665 7.99992 10.6665H8.00659C8.37477 10.6665 8.67325 10.965 8.67325 11.3332C8.67325 11.7014 8.37477 11.9998 8.00659 11.9998H7.99992C7.63173 11.9998 7.33325 11.7014 7.33325 11.3332Z" fill="#FD272F"/>
</svg>
